<svg width="40" height="40" viewBox="0 0 40 40" fill="none" xmlns="http://www.w3.org/2000/svg">
<path fill-rule="evenodd" clip-rule="evenodd" d="M-0.000732422 20C-0.000732422 10.572 -0.000732422 5.858 2.92727 2.928C5.85927 0 10.5713 0 19.9993 0C29.4273 0 34.1413 0 37.0693 2.928C39.9993 5.86 39.9993 10.572 39.9993 20C39.9993 29.428 39.9993 34.142 37.0693 37.07C34.1433 40 29.4273 40 19.9993 40C10.5713 40 5.85727 40 2.92727 37.07C-0.000732422 34.144 -0.000732422 29.428 -0.000732422 20ZM19.9993 8.5C20.3971 8.5 20.7786 8.65804 21.0599 8.93934C21.3412 9.22064 21.4993 9.60218 21.4993 10V20.38L24.9393 16.94C25.0766 16.7926 25.2422 16.6744 25.4262 16.5924C25.6102 16.5105 25.8088 16.4664 26.0102 16.4628C26.2116 16.4593 26.4117 16.4963 26.5985 16.5718C26.7852 16.6472 26.9549 16.7595 27.0973 16.9019C27.2398 17.0444 27.3521 17.214 27.4275 17.4008C27.503 17.5876 27.54 17.7876 27.5365 17.989C27.5329 18.1905 27.4888 18.3891 27.4068 18.5731C27.3248 18.7571 27.2066 18.9227 27.0593 19.06L21.0593 25.06C20.778 25.3409 20.3968 25.4987 19.9993 25.4987C19.6018 25.4987 19.2205 25.3409 18.9393 25.06L12.9393 19.06C12.7919 18.9227 12.6737 18.7571 12.5917 18.5731C12.5097 18.3891 12.4656 18.1905 12.4621 17.989C12.4585 17.7876 12.4956 17.5876 12.571 17.4008C12.6465 17.214 12.7588 17.0444 12.9012 16.9019C13.0436 16.7595 13.2133 16.6472 13.4001 16.5718C13.5868 16.4963 13.7869 16.4593 13.9883 16.4628C14.1897 16.4664 14.3883 16.5105 14.5723 16.5924C14.7563 16.6744 14.9219 16.7926 15.0593 16.94L18.4993 20.38V10C18.4993 9.60218 18.6573 9.22064 18.9386 8.93934C19.2199 8.65804 19.6014 8.5 19.9993 8.5ZM11.9993 28.5C11.6014 28.5 11.2199 28.658 10.9386 28.9393C10.6573 29.2206 10.4993 29.6022 10.4993 30C10.4993 30.3978 10.6573 30.7794 10.9386 31.0607C11.2199 31.342 11.6014 31.5 11.9993 31.5H27.9993C28.3971 31.5 28.7786 31.342 29.0599 31.0607C29.3412 30.7794 29.4993 30.3978 29.4993 30C29.4993 29.6022 29.3412 29.2206 29.0599 28.9393C28.7786 28.658 28.3971 28.5 27.9993 28.5H11.9993Z" fill="url(#paint0_radial_52_5)" fill-opacity="0.65"/>
<defs>
<radialGradient id="paint0_radial_52_5" cx="0" cy="0" r="1" gradientUnits="userSpaceOnUse" gradientTransform="translate(2.22149 1.71428) rotate(38.148) scale(38.8541 40.2468)">
<stop stop-color="#FAAD52"/>
<stop offset="1" stop-color="#FFE665"/>
</radialGradient>
</defs>
</svg>
