<svg width="54" height="60" viewBox="0 0 54 60" fill="none" xmlns="http://www.w3.org/2000/svg">
<path d="M1.08518 0.939934C0.323584 1.85367 -0.061555 3.0231 0.00801944 4.21058V55.7966C-0.0576182 56.9836 0.327058 58.1516 1.08518 59.0673L1.26144 59.2435L30.1488 30.3365V29.6511L1.26144 0.763672L1.08518 0.939934Z" fill="url(#paint0_linear_4_19)"/>
<path d="M39.7846 39.9722L30.1489 30.3366V29.6511L39.7846 20.035L40 20.1525L51.4179 26.6351C54.6885 28.476 54.6885 31.5117 51.4179 33.3722L40 39.8547L39.7846 39.9722Z" fill="url(#paint1_linear_4_19)"/>
<path d="M40 39.8547L30.2076 30.0624L1.08521 59.0673C1.75648 59.6192 2.59221 59.9321 3.46087 59.957C4.32952 59.9818 5.18177 59.717 5.88345 59.2044L39.9412 39.8547" fill="url(#paint2_linear_4_19)"/>
<path d="M40 20.1525L5.88345 0.783252C5.1893 0.249572 4.33139 -0.0265609 3.45626 0.00201476C2.58113 0.0305904 1.74307 0.362102 1.08521 0.939929L30.1489 30.0036L40 20.1525Z" fill="url(#paint3_linear_4_19)"/>
<path opacity="0.1" d="M39.7844 39.6393L5.88337 58.8714C5.20713 59.3753 4.38632 59.6475 3.543 59.6475C2.69967 59.6475 1.87887 59.3753 1.20263 58.8714L1.02637 59.0477L1.20263 59.224C1.87887 59.7278 2.69967 60 3.543 60C4.38632 60 5.20713 59.7278 5.88337 59.224L39.9411 39.8743L39.7844 39.6393Z" fill="black"/>
<path opacity="0.07" d="M1.08508 58.7538C0.325695 57.8312 -0.0588237 56.6567 0.00792409 55.4636V55.7966C-0.0577135 56.9835 0.326963 58.1515 1.08508 59.0672L1.26134 58.8909L1.08508 58.7538Z" fill="black"/>
<path opacity="0.07" d="M51.4177 33.0197L39.7844 39.6393L39.9999 39.8547L51.4177 33.2939C52.0874 32.9993 52.667 32.5323 53.0971 31.9405C53.5272 31.3486 53.7925 30.6532 53.8658 29.9253C53.7322 30.5982 53.4405 31.2297 53.0149 31.7677C52.5892 32.3057 52.0418 32.7348 51.4177 33.0197Z" fill="black"/>
<path opacity="0.3" d="M5.88346 1.13581L51.4178 26.968C52.0359 27.2458 52.5796 27.6655 53.005 28.193C53.4303 28.7204 53.7253 29.3408 53.8659 30.0036C53.7966 29.2745 53.5329 28.5773 53.1023 27.9848C52.6717 27.3923 52.09 26.9261 51.4178 26.6351L5.88346 0.783284C2.67157 -1.05768 0.00805664 0.469929 0.00805664 4.2106V4.54354C0.00805664 0.822453 2.67157 -0.724736 5.88346 1.13581Z" fill="white"/>
<defs>
<linearGradient id="paint0_linear_4_19" x1="27.6028" y1="3.66221" x2="-11.5469" y2="42.812" gradientUnits="userSpaceOnUse">
<stop stop-color="#008EFF"/>
<stop offset="0.01" stop-color="#008FFF"/>
<stop offset="0.26" stop-color="#00ACFF"/>
<stop offset="0.51" stop-color="#00C0FF"/>
<stop offset="0.76" stop-color="#00CDFF"/>
<stop offset="1" stop-color="#00D1FF"/>
</linearGradient>
<linearGradient id="paint1_linear_4_19" x1="51.8096" y1="30.0036" x2="-4.63346" y2="30.0036" gradientUnits="userSpaceOnUse">
<stop stop-color="#FFD800"/>
<stop offset="1" stop-color="#FF8A00"/>
</linearGradient>
<linearGradient id="paint2_linear_4_19" x1="34.6533" y1="35.3502" x2="-18.4211" y2="88.4247" gradientUnits="userSpaceOnUse">
<stop stop-color="#FF3A44"/>
<stop offset="1" stop-color="#B11162"/>
</linearGradient>
<linearGradient id="paint3_linear_4_19" x1="-6.23946" y1="-16.2358" x2="17.4776" y2="7.46163" gradientUnits="userSpaceOnUse">
<stop stop-color="#328E71"/>
<stop offset="0.07" stop-color="#2D9571"/>
<stop offset="0.48" stop-color="#15BD74"/>
<stop offset="0.8" stop-color="#06D575"/>
<stop offset="1" stop-color="#00DE76"/>
</linearGradient>
</defs>
</svg>
