<svg width="60" height="60" viewBox="0 0 60 60" fill="none" xmlns="http://www.w3.org/2000/svg">
<path d="M30.0002 46.6911C39.2193 46.6911 46.6925 39.2174 46.6925 29.9983C46.6925 20.7792 39.2193 13.3055 30.0002 13.3055C20.7811 13.3055 13.3076 20.7792 13.3076 29.9983C13.3076 39.2174 20.7811 46.6911 30.0002 46.6911Z" fill="white"/>
<path d="M8.4113 21.7961C7.16607 19.6392 5.70241 17.3754 4.02008 15.0047C1.38658 19.565 8.9455e-05 24.7383 4.32851e-09 30.0043C-8.94464e-05 35.2704 1.38623 40.4437 4.01957 45.0041C6.65291 49.5645 10.4405 53.3513 15.0014 55.9836C19.5624 58.616 24.736 60.0012 30.002 60C32.763 56.1274 34.638 53.3351 35.6261 51.6235C37.5243 48.3357 39.9791 43.6285 42.9908 37.5022V37.4987C41.6751 39.7799 39.7819 41.6745 37.5016 42.9919C35.2214 44.3093 32.6344 45.0031 30.001 45.0035C27.3675 45.0039 24.7804 44.3109 22.4997 42.9942C20.219 41.6775 18.3253 39.7835 17.0088 37.5027C12.9183 29.8743 10.0526 24.6386 8.4113 21.7961Z" fill="#229342"/>
<path d="M30.0015 59.9988C33.9412 59.9994 37.8424 59.2239 41.4823 57.7165C45.1222 56.209 48.4295 53.9993 51.2152 51.2134C54.0009 48.4276 56.2105 45.1202 57.7177 41.4802C59.2249 37.8402 60.0003 33.9389 59.9994 29.9992C59.9985 24.7331 58.6111 19.56 55.9769 15C50.2938 14.4399 46.0997 14.1598 43.3943 14.1598C40.3268 14.1598 35.8618 14.4399 29.9994 15L29.9961 15.0024C32.6296 15.0011 35.217 15.6933 37.4981 17.0094C39.7792 18.3254 41.6736 20.2188 42.9907 22.4993C44.3078 24.7798 45.0012 27.3669 45.0011 30.0004C45.0011 32.634 44.3076 35.2211 42.9905 37.5015L30.0015 59.9988Z" fill="#FBC116"/>
<path d="M30.0002 41.8773C36.5589 41.8773 41.8757 36.5605 41.8757 30.0016C41.8757 23.4424 36.5589 18.1259 30 18.1259C23.4415 18.1259 18.1245 23.4429 18.1245 30.0016C18.1245 36.5603 23.4415 41.8773 30.0002 41.8773Z" fill="#1A73E8"/>
<path d="M30.0002 15.0009H55.9775C53.3452 10.4399 49.5584 6.65234 44.9979 4.01907C40.4375 1.38579 35.2641 -0.000356256 29.9979 6.86805e-08C24.7318 0.000356393 19.5586 1.38721 14.9985 4.0211C10.4384 6.65499 6.6521 10.4431 4.02039 15.0045L17.0091 37.502L17.0127 37.5039C15.6949 35.2238 15.0007 32.6369 15 30.0034C14.9992 27.3699 15.6918 24.7826 17.0082 22.5017C18.3247 20.2209 20.2184 18.3268 22.4991 17.0101C24.7798 15.6933 27.367 15.0003 30.0005 15.0007L30.0002 15.0009Z" fill="#E33B2E"/>
</svg>
