<svg width="25" height="24" viewBox="0 0 25 24" fill="none" xmlns="http://www.w3.org/2000/svg">
<path d="M6.54541 3C6.54541 3.79565 6.22934 4.55871 5.66673 5.12132C5.10412 5.68393 4.34106 6 3.54541 6C2.74976 6 1.9867 5.68393 1.42409 5.12132C0.861481 4.55871 0.54541 3.79565 0.54541 3C0.54541 2.20435 0.861481 1.44129 1.42409 0.87868C1.9867 0.31607 2.74976 0 3.54541 0C4.34106 0 5.10412 0.31607 5.66673 0.87868C6.22934 1.44129 6.54541 2.20435 6.54541 3ZM6.54541 12C6.54541 12.7956 6.22934 13.5587 5.66673 14.1213C5.10412 14.6839 4.34106 15 3.54541 15C2.74976 15 1.9867 14.6839 1.42409 14.1213C0.861481 13.5587 0.54541 12.7956 0.54541 12C0.54541 11.2044 0.861481 10.4413 1.42409 9.87868C1.9867 9.31607 2.74976 9 3.54541 9C4.34106 9 5.10412 9.31607 5.66673 9.87868C6.22934 10.4413 6.54541 11.2044 6.54541 12ZM3.54541 24C4.34106 24 5.10412 23.6839 5.66673 23.1213C6.22934 22.5587 6.54541 21.7956 6.54541 21C6.54541 20.2044 6.22934 19.4413 5.66673 18.8787C5.10412 18.3161 4.34106 18 3.54541 18C2.74976 18 1.9867 18.3161 1.42409 18.8787C0.861481 19.4413 0.54541 20.2044 0.54541 21C0.54541 21.7956 0.861481 22.5587 1.42409 23.1213C1.9867 23.6839 2.74976 24 3.54541 24ZM15.5454 3C15.5454 3.79565 15.2293 4.55871 14.6667 5.12132C14.1041 5.68393 13.3411 6 12.5454 6C11.7498 6 10.9867 5.68393 10.4241 5.12132C9.86148 4.55871 9.54541 3.79565 9.54541 3C9.54541 2.20435 9.86148 1.44129 10.4241 0.87868C10.9867 0.31607 11.7498 0 12.5454 0C13.3411 0 14.1041 0.31607 14.6667 0.87868C15.2293 1.44129 15.5454 2.20435 15.5454 3ZM12.5454 15C13.3411 15 14.1041 14.6839 14.6667 14.1213C15.2293 13.5587 15.5454 12.7956 15.5454 12C15.5454 11.2044 15.2293 10.4413 14.6667 9.87868C14.1041 9.31607 13.3411 9 12.5454 9C11.7498 9 10.9867 9.31607 10.4241 9.87868C9.86148 10.4413 9.54541 11.2044 9.54541 12C9.54541 12.7956 9.86148 13.5587 10.4241 14.1213C10.9867 14.6839 11.7498 15 12.5454 15ZM15.5454 21C15.5454 21.7956 15.2293 22.5587 14.6667 23.1213C14.1041 23.6839 13.3411 24 12.5454 24C11.7498 24 10.9867 23.6839 10.4241 23.1213C9.86148 22.5587 9.54541 21.7956 9.54541 21C9.54541 20.2044 9.86148 19.4413 10.4241 18.8787C10.9867 18.3161 11.7498 18 12.5454 18C13.3411 18 14.1041 18.3161 14.6667 18.8787C15.2293 19.4413 15.5454 20.2044 15.5454 21ZM21.5454 6C22.3411 6 23.1041 5.68393 23.6667 5.12132C24.2293 4.55871 24.5454 3.79565 24.5454 3C24.5454 2.20435 24.2293 1.44129 23.6667 0.87868C23.1041 0.31607 22.3411 0 21.5454 0C20.7498 0 19.9867 0.31607 19.4241 0.87868C18.8615 1.44129 18.5454 2.20435 18.5454 3C18.5454 3.79565 18.8615 4.55871 19.4241 5.12132C19.9867 5.68393 20.7498 6 21.5454 6ZM24.5454 12C24.5454 12.7956 24.2293 13.5587 23.6667 14.1213C23.1041 14.6839 22.3411 15 21.5454 15C20.7498 15 19.9867 14.6839 19.4241 14.1213C18.8615 13.5587 18.5454 12.7956 18.5454 12C18.5454 11.2044 18.8615 10.4413 19.4241 9.87868C19.9867 9.31607 20.7498 9 21.5454 9C22.3411 9 23.1041 9.31607 23.6667 9.87868C24.2293 10.4413 24.5454 11.2044 24.5454 12ZM21.5454 24C22.3411 24 23.1041 23.6839 23.6667 23.1213C24.2293 22.5587 24.5454 21.7956 24.5454 21C24.5454 20.2044 24.2293 19.4413 23.6667 18.8787C23.1041 18.3161 22.3411 18 21.5454 18C20.7498 18 19.9867 18.3161 19.4241 18.8787C18.8615 19.4413 18.5454 20.2044 18.5454 21C18.5454 21.7956 18.8615 22.5587 19.4241 23.1213C19.9867 23.6839 20.7498 24 21.5454 24Z" fill="white"/>
</svg>
