<svg width="24" height="24" viewBox="0 0 24 24" fill="none" xmlns="http://www.w3.org/2000/svg">
<path d="M15.9456 17.5528L16.1882 17.583L16.361 17.4102L18.4263 15.3449C18.4267 15.3446 18.427 15.3442 18.4274 15.3438C18.6368 15.1374 18.9015 14.9962 19.1896 14.9371C19.4777 14.878 19.7768 14.9037 20.0506 15.011C20.051 15.0112 20.0514 15.0113 20.0518 15.0115L22.5664 16.0155C22.5668 16.0157 22.5673 16.0158 22.5677 16.016C22.8438 16.1284 23.0805 16.3198 23.2481 16.5663C23.4155 16.8126 23.5065 17.1028 23.5097 17.4006V22.0108C23.5078 22.213 23.4652 22.4127 23.3844 22.598L23.8427 22.7979L23.3844 22.598C23.3033 22.7839 23.1855 22.9514 23.0379 23.0905C22.8904 23.2297 22.7163 23.3375 22.526 23.4075C22.3365 23.4773 22.1349 23.5081 21.9332 23.4982C13.2695 22.9584 8.10145 19.0329 5.00119 14.5601C1.88558 10.0652 0.84147 4.98933 0.50906 2.16763C0.485854 1.95725 0.507348 1.74433 0.572141 1.54282C0.637085 1.34085 0.744058 1.15491 0.886023 0.997243C1.02799 0.839577 1.20173 0.713756 1.39581 0.628058C1.58989 0.54236 1.79992 0.498726 2.01208 0.500028V0.500038H2.01515H6.47234C6.77014 0.501057 7.06084 0.591074 7.30711 0.758537C7.55357 0.926129 7.74425 1.16362 7.85464 1.44047L7.85472 1.44069L8.86077 3.96041L8.86075 3.96042L8.86212 3.96378C8.97294 4.23558 9.00121 4.53401 8.94341 4.82179C8.88565 5.10935 8.7445 5.37354 8.53758 5.58141C8.53743 5.58156 8.53728 5.58172 8.53712 5.58187L6.4703 7.64869L6.29246 7.82653L6.32923 8.07533L6.82386 8.00224C6.32923 8.07533 6.32927 8.07559 6.32931 8.07589L6.32942 8.07662L6.32973 8.07865L6.33069 8.08491L6.33406 8.10604C6.33698 8.1239 6.34127 8.14924 6.3471 8.1816C6.35875 8.2463 6.37657 8.33911 6.40197 8.45631C6.45274 8.6906 6.53392 9.02297 6.65677 9.42346C6.9021 10.2232 7.31582 11.3016 7.99074 12.4148C9.34564 14.6497 11.7611 17.0309 15.9456 17.5528Z" fill="white"/>
<path d="M15.9456 17.5528L16.1882 17.583L16.361 17.4102L18.4263 15.3449C18.4267 15.3446 18.427 15.3442 18.4274 15.3438C18.6368 15.1374 18.9015 14.9962 19.1896 14.9371C19.4777 14.878 19.7768 14.9037 20.0506 15.011C20.051 15.0112 20.0514 15.0113 20.0518 15.0115L22.5664 16.0155C22.5668 16.0157 22.5673 16.0158 22.5677 16.016C22.8438 16.1284 23.0805 16.3198 23.2481 16.5663C23.4155 16.8126 23.5065 17.1028 23.5097 17.4006V22.0108C23.5078 22.213 23.4652 22.4127 23.3844 22.598L23.8427 22.7979L23.3844 22.598C23.3033 22.7839 23.1855 22.9514 23.0379 23.0905C22.8904 23.2297 22.7163 23.3375 22.526 23.4075C22.3365 23.4773 22.1349 23.5081 21.9332 23.4982C13.2695 22.9584 8.10145 19.0329 5.00119 14.5601C1.88558 10.0652 0.84147 4.98933 0.50906 2.16763C0.485854 1.95725 0.507348 1.74433 0.572141 1.54282C0.637085 1.34085 0.744058 1.15491 0.886023 0.997243C1.02799 0.839577 1.20173 0.713756 1.39581 0.628058C1.58989 0.54236 1.79992 0.498726 2.01208 0.500028V0.500038H2.01515H6.47234C6.77014 0.501057 7.06084 0.591074 7.30711 0.758537C7.55357 0.926129 7.74425 1.16362 7.85464 1.44047L7.85472 1.44069L8.86077 3.96041L8.86075 3.96042L8.86212 3.96378C8.97294 4.23558 9.00121 4.53401 8.94341 4.82179C8.88565 5.10935 8.7445 5.37354 8.53758 5.58141C8.53743 5.58156 8.53728 5.58172 8.53712 5.58187L6.4703 7.64869L6.29246 7.82653L6.32923 8.07533L6.82386 8.00224C6.32923 8.07533 6.32927 8.07559 6.32931 8.07589L6.32942 8.07662L6.32973 8.07865L6.33069 8.08491L6.33406 8.10604C6.33698 8.1239 6.34127 8.14924 6.3471 8.1816C6.35875 8.2463 6.37657 8.33911 6.40197 8.45631C6.45274 8.6906 6.53392 9.02297 6.65677 9.42346C6.9021 10.2232 7.31582 11.3016 7.99074 12.4148C9.34564 14.6497 11.7611 17.0309 15.9456 17.5528Z" stroke="black"/>
<path d="M15.9456 17.5528L16.1882 17.583L16.361 17.4102L18.4263 15.3449C18.4267 15.3446 18.427 15.3442 18.4274 15.3438C18.6368 15.1374 18.9015 14.9962 19.1896 14.9371C19.4777 14.878 19.7768 14.9037 20.0506 15.011C20.051 15.0112 20.0514 15.0113 20.0518 15.0115L22.5664 16.0155C22.5668 16.0157 22.5673 16.0158 22.5677 16.016C22.8438 16.1284 23.0805 16.3198 23.2481 16.5663C23.4155 16.8126 23.5065 17.1028 23.5097 17.4006V22.0108C23.5078 22.213 23.4652 22.4127 23.3844 22.598L23.8427 22.7979L23.3844 22.598C23.3033 22.7839 23.1855 22.9514 23.0379 23.0905C22.8904 23.2297 22.7163 23.3375 22.526 23.4075C22.3365 23.4773 22.1349 23.5081 21.9332 23.4982C13.2695 22.9584 8.10145 19.0329 5.00119 14.5601C1.88558 10.0652 0.84147 4.98933 0.50906 2.16763C0.485854 1.95725 0.507348 1.74433 0.572141 1.54282C0.637085 1.34085 0.744058 1.15491 0.886023 0.997243C1.02799 0.839577 1.20173 0.713756 1.39581 0.628058C1.58989 0.54236 1.79992 0.498726 2.01208 0.500028V0.500038H2.01515H6.47234C6.77014 0.501057 7.06084 0.591074 7.30711 0.758537C7.55357 0.926129 7.74425 1.16362 7.85464 1.44047L7.85472 1.44069L8.86077 3.96041L8.86075 3.96042L8.86212 3.96378C8.97294 4.23558 9.00121 4.53401 8.94341 4.82179C8.88565 5.10935 8.7445 5.37354 8.53758 5.58141C8.53743 5.58156 8.53728 5.58172 8.53712 5.58187L6.4703 7.64869L6.29246 7.82653L6.32923 8.07533L6.82386 8.00224C6.32923 8.07533 6.32927 8.07559 6.32931 8.07589L6.32942 8.07662L6.32973 8.07865L6.33069 8.08491L6.33406 8.10604C6.33698 8.1239 6.34127 8.14924 6.3471 8.1816C6.35875 8.2463 6.37657 8.33911 6.40197 8.45631C6.45274 8.6906 6.53392 9.02297 6.65677 9.42346C6.9021 10.2232 7.31582 11.3016 7.99074 12.4148C9.34564 14.6497 11.7611 17.0309 15.9456 17.5528Z" stroke="black" stroke-opacity="0.2"/>
</svg>
