<svg width="25" height="24" viewBox="0 0 25 24" fill="none" xmlns="http://www.w3.org/2000/svg">
<path d="M12.5334 0C5.90941 0 0.54541 5.376 0.54541 12C0.54541 18.624 5.90941 24 12.5334 24C19.1694 24 24.5454 18.624 24.5454 12C24.5454 5.376 19.1694 0 12.5334 0ZM20.8494 7.2H17.3094C16.9338 5.71375 16.3777 4.27908 15.6534 2.928C17.8423 3.6816 19.6868 5.19807 20.8494 7.2ZM12.5454 2.448C13.5414 3.888 14.3214 5.484 14.8374 7.2H10.2534C10.7694 5.484 11.5494 3.888 12.5454 2.448ZM3.25741 14.4C3.06541 13.632 2.94541 12.828 2.94541 12C2.94541 11.172 3.06541 10.368 3.25741 9.6H7.31341C7.21741 10.392 7.14541 11.184 7.14541 12C7.14541 12.816 7.21741 13.608 7.31341 14.4H3.25741ZM4.24141 16.8H7.78141C8.16541 18.3 8.71741 19.74 9.43741 21.072C7.24617 20.3225 5.40041 18.805 4.24141 16.8ZM7.78141 7.2H4.24141C5.40041 5.19501 7.24617 3.67748 9.43741 2.928C8.71312 4.27908 8.15698 5.71375 7.78141 7.2ZM12.5454 21.552C11.5494 20.112 10.7694 18.516 10.2534 16.8H14.8374C14.3214 18.516 13.5414 20.112 12.5454 21.552ZM15.3534 14.4H9.73741C9.62941 13.608 9.54541 12.816 9.54541 12C9.54541 11.184 9.62941 10.38 9.73741 9.6H15.3534C15.4614 10.38 15.5454 11.184 15.5454 12C15.5454 12.816 15.4614 13.608 15.3534 14.4ZM15.6534 21.072C16.3734 19.74 16.9254 18.3 17.3094 16.8H20.8494C19.6868 18.8019 17.8423 20.3184 15.6534 21.072ZM17.7774 14.4C17.8734 13.608 17.9454 12.816 17.9454 12C17.9454 11.184 17.8734 10.392 17.7774 9.6H21.8334C22.0254 10.368 22.1454 11.172 22.1454 12C22.1454 12.828 22.0254 13.632 21.8334 14.4H17.7774Z" fill="white"/>
</svg>
