<svg width="51" height="60" viewBox="0 0 51 60" fill="none" xmlns="http://www.w3.org/2000/svg">
<path d="M42.1183 57.5927C38.852 60.759 35.2858 60.2591 31.8529 58.7592C28.22 57.2261 24.8871 57.1595 21.0543 58.7592C16.2549 60.8257 13.7219 60.2257 10.8556 57.5927C-5.40906 40.8282 -3.00936 15.2981 15.455 14.3649C19.9544 14.5982 23.0873 16.8312 25.7204 17.0312C29.6532 16.2313 33.4194 13.9316 37.6188 14.2315C42.6515 14.6315 46.4511 16.6312 48.9508 20.2308C38.5521 26.4633 41.0184 40.1616 50.5505 43.9944C48.6508 48.9938 46.1844 53.9599 42.085 57.6261L42.1183 57.5927ZM25.3871 14.1649C24.8871 6.73248 30.9197 0.599924 37.8522 0C38.8187 8.59891 30.0531 14.9981 25.3871 14.1649Z" fill="white"/>
</svg>
